<?xml version="1.0" encoding="UTF-8"?>
<svg xmlns="http://www.w3.org/2000/svg" version="1.1" viewBox="0 0 574.7 494.4">
  <defs>
    <style>
      .cls-1 {
        fill: #fff;
      }
    </style>
  </defs>
  <!-- Generator: Adobe Illustrator 28.8.0, SVG Export Plug-In . SVG Version: 1.2.0 Build 43)  -->
  <g>
    <g id="Layer_1">
      <g id="Layer_1-2" data-name="Layer_1">
        <g>
          <path class="cls-1" d="M266.8,417.7h0Z"/>
          <path class="cls-1" d="M497.1,186.8h0v1.1-1.2c.4-35.2.8-70.7,1.2-105.9h0c0-4.3-4.6-6.9-8.1-4.6l-159.5,103.2-13.8,8.9-23.3,15c-.1,0-.3.2-.5.3h-.1c-3.9,2.3-8.7,2.2-12.5-.3L84.3,76.2c-3.5-2.3-8.1.3-8.1,4.4.2,35.5.3,70.6.5,106.1,0,4.9.8,12.4,3.1,21,7.1,25.6,24.8,39.6,30.4,46.1,12.6,14.9,25.2,29.7,37.8,44.5h0c19.7,23.2,39.5,46.4,59.2,69.6.6.8,1.3,1.5,1.9,2.3,9,10.6,17.9,21.1,26.9,31.7,7.7,9.1,18.7,14.7,30.6,15.7h0c-5.9-.5-11.6-2.2-16.8-4.8,5.2,2.7,10.9,4.3,16.8,4.8h0c4.6.4,9.4.6,14.3.7h6.8c6.7,0,13-.3,19-.8,12-1,23-6.7,30.7-16h0c41.3-49.5,83.5-98.4,124.8-147.9,6.1-7.3,22.7-22.1,30.4-46.1,1.3-4,2.2-7.5,2.8-10.7-.6,3.2-1.5,6.7-2.8,10.7-7.7,24-24.3,38.8-30.4,46.1-41.3,49.5-83.5,98.4-124.8,147.9-7.7,9.2-18.8,15-30.7,16-6,.5-12.3.8-19,.8,6.7,0,13.1-.3,19.1-.8,12-1,23-6.7,30.7-15.9,41.3-49.5,83.4-98.3,124.7-147.8,6.1-7.3,22.7-22.1,30.4-46.1,2.9-8.9,3.8-15.7,4.2-21,.4-35.2.8-70.8,1.2-106h0c-.4,35.2-.8,70.7-1.2,105.9l.3.2Z"/>
        </g>
      </g>
    </g>
  </g>
</svg>