<svg width="400" height="320" viewBox="0 0 400 320" xmlns="http://www.w3.org/2000/svg" fill="none">
  <!-- Back page (slightly offset) -->
  <rect 
    x="60" 
    y="40" 
    width="240" 
    height="260" 
    rx="12" 
    ry="12" 
    fill="#ffffff" 
    stroke="#e5e5e5" 
    stroke-width="8" />

  <!-- Middle page (offset) -->
  <rect 
    x="80" 
    y="30" 
    width="240" 
    height="260" 
    rx="12" 
    ry="12" 
    fill="#ffffff" 
    stroke="#e5e5e5" 
    stroke-width="8" />

  <!-- Front page -->
  <rect 
    x="100" 
    y="20" 
    width="240" 
    height="260" 
    rx="12" 
    ry="12" 
    fill="#ffffff" 
    stroke="#ffffff" 
    stroke-width="28" />

  <!-- Front page content lines (text representation) -->
  <!-- Title line -->
  <rect 
    x="125" 
    y="55" 
    width="170" 
    height="14" 
    rx="2" 
    fill="#1a1a1a" />
  
  <!-- Body lines -->
  <rect 
    x="125" 
    y="85" 
    width="185" 
    height="8" 
    rx="1" 
    fill="#1a1a1a" />
  <rect 
    x="125" 
    y="102" 
    width="178" 
    height="8" 
    rx="1" 
    fill="#1a1a1a" />
  <rect 
    x="125" 
    y="119" 
    width="185" 
    height="8" 
    rx="1" 
    fill="#1a1a1a" />
  
  <!-- More body lines -->
  <rect 
    x="125" 
    y="145" 
    width="170" 
    height="8" 
    rx="1" 
    fill="#1a1a1a" />
  <rect 
    x="125" 
    y="162" 
    width="182" 
    height="8" 
    rx="1" 
    fill="#1a1a1a" />
  <rect 
    x="125" 
    y="179" 
    width="165" 
    height="8" 
    rx="1" 
    fill="#1a1a1a" />

  <!-- Bottom lines -->
  <rect 
    x="125" 
    y="215" 
    width="185" 
    height="8" 
    rx="1" 
    fill="#1a1a1a" />
  <rect 
    x="125" 
    y="232" 
    width="140" 
    height="8" 
    rx="1" 
    fill="#1a1a1a" />

</svg>